<svg width="955" height="900" viewBox="0 0 955 900" fill="none" xmlns="http://www.w3.org/2000/svg">
<g filter="url(#filter0_d_9193_181268)">
<path d="M931.71 806.412C882.154 904.211 780.915 888.577 735.13 845.27C670.25 783.909 695.755 744.767 546.711 782.644C436.719 810.599 322.229 757.742 341.782 656.061C369.118 513.909 211.159 578.956 128.504 560.792C-42.2209 523.307 4.12984 428.081 66.5592 265.606C130.658 98.7916 256.729 26.4399 443.263 5.24464C580.996 -10.3901 701.491 6.05147 735.723 93.9725C784.874 220.228 620.29 262.575 759.261 296.57C842.402 316.915 959.289 391.993 853.202 512.164C747.115 632.315 1003.11 665.568 931.737 806.434L931.71 806.412Z" fill="url(#paint0_linear_9193_181268)"/>
<mask id="mask0_9193_181268" style="mask-type:luminance" maskUnits="userSpaceOnUse" x="10" y="0" width="935" height="880">
<path d="M931.71 806.412C882.154 904.211 780.915 888.577 735.13 845.27C670.25 783.909 695.755 744.767 546.711 782.644C436.719 810.599 322.229 757.742 341.782 656.061C369.118 513.909 211.159 578.956 128.504 560.791C-42.2209 523.307 4.12983 428.081 66.5592 265.606C130.658 98.7916 256.729 26.4399 443.263 5.24464C580.996 -10.3901 701.491 6.05147 735.723 93.9725C784.874 220.228 620.29 262.575 759.261 296.57C842.402 316.915 959.289 391.993 853.202 512.164C747.115 632.315 1003.11 665.568 931.737 806.434L931.71 806.412Z" fill="white"/>
</mask>
<g mask="url(#mask0_9193_181268)">
<path d="M1062.57 682.097C1022.69 695.791 972.836 692.957 932.168 674.073C906.259 662.036 887.46 650.021 870.87 639.38C819.94 606.78 798.879 593.282 682.881 664.173C620.129 702.508 541.594 713.999 477.898 694.112C421.771 676.58 383.877 637.199 371.192 583.23C360.742 538.702 342.751 511.51 316.196 500.15C278.302 483.904 226.161 502.221 175.77 519.927C141.862 531.855 106.796 544.175 75.7164 546.116C6.28455 550.477 -43.9175 540.752 -77.7716 516.373C-141.332 470.581 -145.776 377.339 -151.917 248.292C-152.401 238.371 -152.859 228.253 -153.398 217.917C-158.811 110.85 -135.192 23.627 -81.2189 -48.7465C-30.8822 -116.235 46.7101 -171.535 156.056 -217.807C240.085 -253.372 314.634 -272.387 377.575 -274.306C450.966 -276.552 508.844 -255.531 549.646 -211.876C608.036 -149.402 601.007 -92.6198 595.862 -51.1451C592.792 -26.3083 590.341 -6.70486 603.511 4.52512C615.065 14.3596 638.954 18.2192 678.734 16.6491C740.624 14.1851 830.579 29.362 880.404 80.1913C919.725 120.292 927.67 174.61 904.05 241.576C873.159 329.127 935.804 359.349 1008.36 394.326C1076.53 427.187 1153.79 464.453 1148.27 559.505C1144.07 631.726 1105.32 663.715 1073.51 677.823C1069.95 679.393 1066.32 680.833 1062.57 682.119V682.097Z" fill="url(#paint1_linear_9193_181268)"/>
<path d="M1036.64 629.087C994.894 638.42 945.903 630.287 908.656 607.238C884.928 592.562 868.257 578.629 853.525 566.33C808.359 528.584 789.668 512.971 663.14 570.888C594.704 602.201 514.984 605.232 455.087 578.716C402.299 555.362 371.138 512.295 367.341 457.432C364.217 412.163 350.804 383.314 326.323 369.206C291.391 349.079 236.745 361.661 183.904 373.85C148.353 382.049 111.59 390.532 80.4835 389.158C10.944 386.083 -37.2382 371.103 -66.8369 343.3C-122.399 291.119 -111.652 198.226 -96.7588 69.6591C-95.6277 59.781 -94.4427 49.6849 -93.2846 39.3926C-81.2458 -67.3033 -43.6481 -151.277 21.6092 -217.262C82.4765 -278.798 168.391 -325.353 284.281 -359.588C373.374 -385.886 450.347 -396.789 513.072 -391.97C586.167 -386.366 640.14 -359.37 673.509 -311.746C721.233 -243.581 705.02 -188.042 693.196 -147.505C686.113 -123.213 680.511 -104.046 691.742 -91.5077C701.599 -80.5176 724.654 -74.1503 764.325 -71.49C826.081 -67.3251 912.777 -42.7063 953.902 12.9857C986.356 56.9463 985.413 111.613 951.101 175.504C906.259 258.999 963.463 295.633 1029.69 338.045C1091.93 377.884 1162.44 423.044 1141.54 516.7C1125.65 587.852 1082.02 615.437 1048.19 626.034C1044.42 627.212 1040.57 628.259 1036.64 629.131V629.087Z" fill="url(#paint2_linear_9193_181268)"/>
</g>
</g>
<defs>
<filter id="filter0_d_9193_181268" x="0" y="0" width="954.503" height="899.12" filterUnits="userSpaceOnUse" color-interpolation-filters="sRGB">
<feFlood flood-opacity="0" result="BackgroundImageFix"/>
<feColorMatrix in="SourceAlpha" type="matrix" values="0 0 0 0 0 0 0 0 0 0 0 0 0 0 0 0 0 0 127 0" result="hardAlpha"/>
<feOffset dy="10"/>
<feGaussianBlur stdDeviation="5"/>
<feComposite in2="hardAlpha" operator="out"/>
<feColorMatrix type="matrix" values="0 0 0 0 0 0 0 0 0 0 0 0 0 0 0 0 0 0 0.14 0"/>
<feBlend mode="normal" in2="BackgroundImageFix" result="effect1_dropShadow_9193_181268"/>
<feBlend mode="normal" in="SourceGraphic" in2="effect1_dropShadow_9193_181268" result="shape"/>
</filter>
<linearGradient id="paint0_linear_9193_181268" x1="477.198" y1="800.459" x2="477.198" y2="556.234" gradientUnits="userSpaceOnUse">
<stop stop-color="#B4C275"/>
<stop offset="1" stop-color="#81ADDD"/>
</linearGradient>
<linearGradient id="paint1_linear_9193_181268" x1="497.236" y1="776.996" x2="497.236" y2="387.719" gradientUnits="userSpaceOnUse">
<stop/>
<stop offset="1" stop-color="#81ADDD"/>
</linearGradient>
<linearGradient id="paint2_linear_9193_181268" x1="518.27" y1="647.186" x2="518.27" y2="317.787" gradientUnits="userSpaceOnUse">
<stop/>
<stop offset="1" stop-color="#81ADDD"/>
</linearGradient>
</defs>
</svg>
