<svg width="346" height="455" viewBox="0 0 346 455" fill="none" xmlns="http://www.w3.org/2000/svg">
<g filter="url(#filter0_dd_9677_192888)">
<path d="M613.188 406.188C559.743 455.795 497.543 423.072 477.317 385.723C448.653 332.801 473.718 314.235 368.867 303.955C291.487 296.371 228.818 237.474 263.666 178.637C312.385 96.3805 195.831 100.985 146.226 70.9084C43.7597 8.80611 94.5667 -39.9281 170.461 -126.861C248.383 -216.116 345.865 -232.509 471.375 -203.334C564.044 -181.782 638.548 -144.183 641.557 -81.6928C645.874 8.04238 529.977 -2.98446 612.625 49.7347C662.069 81.2786 721.445 154.548 626.485 205.24C531.529 255.918 690.177 334.753 613.201 406.208L613.188 406.188Z" fill="url(#paint0_linear_9677_192888)"/>
<mask id="mask0_9677_192888" style="mask-type:luminance" maskUnits="userSpaceOnUse" x="88" y="-217" width="589" height="649">
<path d="M613.188 406.188C559.743 455.795 497.543 423.072 477.317 385.723C448.653 332.801 473.718 314.235 368.867 303.955C291.487 296.371 228.818 237.474 263.666 178.636C312.385 96.3805 195.831 100.985 146.226 70.9083C43.7597 8.80611 94.5667 -39.9281 170.461 -126.861C248.383 -216.116 345.865 -232.509 471.375 -203.334C564.044 -181.782 638.548 -144.183 641.557 -81.6928C645.874 8.0424 529.977 -2.98446 612.625 49.7347C662.069 81.2786 721.445 154.548 626.485 205.24C531.529 255.918 690.177 334.753 613.201 406.207L613.188 406.188Z" fill="white"/>
</mask>
<g mask="url(#mask0_9677_192888)">
<path d="M725.11 358.547C696.274 358.01 664.585 344.923 642.348 323.935C628.182 310.56 618.62 298.813 610.189 288.423C584.293 256.568 573.588 243.385 482.952 261.156C433.924 270.76 380.521 260.075 343.58 233.232C311.029 209.574 295.06 176.46 298.61 139.992C301.549 109.909 295.82 88.9004 281.088 75.799C260.074 57.0827 222.288 56.6395 185.769 56.2139C161.193 55.9356 135.781 55.6386 115.216 49.7875C69.2683 36.7322 38.855 19.278 22.2322 -3.58246C-8.97213 -46.5159 8.48373 -105.552 32.649 -187.255C34.4987 -193.54 36.4087 -199.94 38.3138 -206.495C58.1565 -274.355 92.4869 -323.271 143.249 -356.053C190.59 -386.62 252.936 -403.412 333.891 -407.373C396.104 -410.422 448.564 -405.323 489.773 -392.223C537.825 -376.952 570.749 -350.725 587.671 -314.29C611.886 -262.15 594.946 -228.409 582.567 -203.767C575.161 -189.008 569.297 -177.365 575.383 -167.385C580.725 -158.641 595.365 -150.813 621.487 -142.755C662.134 -130.232 717.121 -100.357 738.325 -57.4083C755.062 -23.5219 748.364 12.0861 718.452 48.3959C679.338 95.8645 713.344 128.901 752.737 167.146C789.746 203.079 831.694 243.82 807.386 301.719C788.912 345.709 756.819 356.814 733.128 358.37C730.482 358.54 727.812 358.61 725.105 358.56L725.11 358.547Z" fill="url(#paint1_linear_9677_192888)"/>
<path d="M719.863 319.666C690.774 315.993 660.799 299.805 641.687 277.001C629.51 262.479 621.745 250.022 614.88 239.022C593.842 205.274 585.134 191.313 490.504 198.618C439.324 202.562 386.999 186.342 353.964 156.237C324.847 129.714 314.046 95.8354 323.55 60.8301C331.399 31.9487 328.998 10.949 316.21 -3.39127C297.961 -23.8502 259.803 -28.4313 222.9 -32.8469C198.072 -35.8187 172.397 -38.8894 152.538 -46.8094C108.142 -64.5166 80.1837 -84.7824 67.0653 -108.807C42.4383 -153.9 69.6621 -209.269 107.354 -285.896C110.242 -291.787 113.212 -297.801 116.207 -303.943C147.279 -367.608 189.959 -411.328 246.642 -437.57C299.509 -462.041 365.341 -471.501 447.912 -466.485C511.385 -462.616 563.647 -451.92 603.246 -434.674C649.394 -414.586 678.485 -385.527 689.724 -348.311C705.786 -295.051 683.165 -264.17 666.662 -241.628C656.774 -228.12 648.963 -217.464 653.507 -207.11C657.498 -198.032 671.05 -188.833 696.179 -178.168C735.293 -161.55 786.108 -126.539 800.614 -82.5395C812.059 -47.8111 799.525 -14.0045 763.354 17.9635C716.083 59.7395 745.166 95.5298 778.836 136.965C810.483 175.894 846.328 220.012 812.358 273.55C786.542 314.221 752.25 321.478 728.017 320.39C725.316 320.267 722.592 320.043 719.854 319.693L719.863 319.666Z" fill="url(#paint2_linear_9677_192888)"/>
</g>
</g>
<defs>
<filter id="filter0_dd_9677_192888" x="78.6328" y="-216.557" width="608.277" height="667.938" filterUnits="userSpaceOnUse" color-interpolation-filters="sRGB">
<feFlood flood-opacity="0" result="BackgroundImageFix"/>
<feColorMatrix in="SourceAlpha" type="matrix" values="0 0 0 0 0 0 0 0 0 0 0 0 0 0 0 0 0 0 127 0" result="hardAlpha"/>
<feOffset dy="10"/>
<feGaussianBlur stdDeviation="5"/>
<feComposite in2="hardAlpha" operator="out"/>
<feColorMatrix type="matrix" values="0 0 0 0 0 0 0 0 0 0 0 0 0 0 0 0 0 0 0.14 0"/>
<feBlend mode="normal" in2="BackgroundImageFix" result="effect1_dropShadow_9677_192888"/>
<feColorMatrix in="SourceAlpha" type="matrix" values="0 0 0 0 0 0 0 0 0 0 0 0 0 0 0 0 0 0 127 0" result="hardAlpha"/>
<feOffset dy="4"/>
<feGaussianBlur stdDeviation="2"/>
<feComposite in2="hardAlpha" operator="out"/>
<feColorMatrix type="matrix" values="0 0 0 0 0 0 0 0 0 0 0 0 0 0 0 0 0 0 0.25 0"/>
<feBlend mode="normal" in2="effect1_dropShadow_9677_192888" result="effect2_dropShadow_9677_192888"/>
<feBlend mode="normal" in="SourceGraphic" in2="effect2_dropShadow_9677_192888" result="shape"/>
</filter>
<linearGradient id="paint0_linear_9677_192888" x1="319.932" y1="299.255" x2="373.197" y2="147.268" gradientUnits="userSpaceOnUse">
<stop stop-color="#B4C275"/>
<stop offset="1" stop-color="#81ADDD"/>
</linearGradient>
<linearGradient id="paint1_linear_9677_192888" x1="338.035" y1="289.205" x2="422.935" y2="46.9484" gradientUnits="userSpaceOnUse">
<stop/>
<stop offset="1" stop-color="#81ADDD"/>
</linearGradient>
<linearGradient id="paint2_linear_9677_192888" x1="379.978" y1="213.198" x2="451.819" y2="8.20512" gradientUnits="userSpaceOnUse">
<stop/>
<stop offset="1" stop-color="#81ADDD"/>
</linearGradient>
</defs>
</svg>
