<svg width="140" height="140" viewBox="0 0 140 140" fill="none" xmlns="http://www.w3.org/2000/svg">
<g filter="url(#filter0_d_9742_184176)">
<path d="M69.9997 123.666C40.4033 123.666 16.333 99.5953 16.333 69.9989C16.333 40.4024 40.4182 16.332 69.9997 16.332C99.5812 16.332 123.666 40.4024 123.666 69.9989C123.666 99.5953 99.5961 123.666 69.9997 123.666Z" fill="url(#paint0_linear_9742_184176)"/>
</g>
<path d="M105 105C124.33 85.67 124.33 54.33 105 35C85.67 15.67 54.33 15.67 35 35C15.67 54.33 15.67 85.67 35 105C54.33 124.33 85.67 124.33 105 105Z" fill="url(#paint1_linear_9742_184176)"/>
<path d="M91.4579 88.2572C91.1786 87.2309 90.4947 86.3432 89.5508 85.7791L79.861 80L78.9941 87.8041L72.8778 98.6967L71.6353 90.6244L72.3866 90.0788C73.0704 89.5795 73.3498 88.6271 73.0608 87.7764L72.0494 84.7897C71.799 84.0408 71.1537 83.5415 70.4313 83.5415H69.9786C69.2562 83.5415 68.6108 84.0408 68.3604 84.7897L67.349 87.7764C67.0601 88.6271 67.349 89.5795 68.0233 90.0788L68.736 90.5966L67.4935 98.6412L61.4061 87.8041L60.5392 80L50.8494 85.7791C49.9055 86.3432 49.2216 87.2309 48.9423 88.2572L45.8022 99.76H94.5979L91.4579 88.2572Z" fill="#979797"/>
<path d="M55.7137 65.8433C56.1567 68.081 56.9369 69.2183 58.0157 69.2183C58.218 69.2183 58.401 69.1721 58.5551 69.1166C60.3756 75.7094 64.5366 79.778 70.0365 79.778C75.5363 79.778 79.7359 75.6817 81.5371 69.0519C81.7297 69.1444 81.9609 69.2183 82.2306 69.2183C83.3093 69.2183 84.0799 68.081 84.5326 65.8433C85.2454 62.2464 85.5054 59.5094 84.5519 58.1501C89.994 45.5285 78.763 39.4997 75.2859 42.5141C75.2859 42.5141 73.1957 40.2949 68.1293 40.2949C54.2014 40.2949 52.8048 52.6576 55.1357 59.833C54.9527 61.331 55.2224 63.3837 55.7137 65.8433ZM70.0365 78.9365C63.7275 78.9365 59.3064 73.0279 58.5358 63.9755C59.9421 58.409 61.5892 54.9693 67.2239 53.5915C73.1187 52.1583 75.1318 48.7463 75.1318 48.7463C75.1318 48.7463 75.623 50.346 78.5993 52.5744C80.439 53.9522 81.2577 56.1621 81.5949 58.2149C81.643 59.1303 81.6623 60.0827 81.6623 61.109C81.6623 71.7704 76.9908 78.9273 70.0365 78.9273V78.9365Z" fill="#979797"/>
<path d="M77.6838 59.7129H73.3494C72.6077 59.7129 71.9624 60.0735 71.5675 60.6098H68.7357C68.3408 60.0643 67.6954 59.7129 66.9537 59.7129H62.6193C61.425 59.7129 60.4521 60.6468 60.4521 61.7934V62.3112C60.4521 63.4578 61.425 64.3917 62.6193 64.3917H66.9537C68.1481 64.3917 69.1209 63.4578 69.1209 62.3112V61.7934C69.1209 61.6732 69.1017 61.5622 69.0824 61.442H71.2111C71.1918 61.553 71.1726 61.6732 71.1726 61.7934V62.3112C71.1726 63.4578 72.1454 64.3917 73.3398 64.3917H77.6742C78.8685 64.3917 79.8414 63.4578 79.8414 62.3112V61.7934C79.8414 60.6468 78.8685 59.7129 77.6742 59.7129H77.6838ZM68.2541 62.3112C68.2541 62.9954 67.6665 63.5595 66.9537 63.5595H62.6193C61.9066 63.5595 61.319 62.9954 61.319 62.3112V61.7934C61.319 61.0999 61.9066 60.5451 62.6193 60.5451H66.9537C67.6665 60.5451 68.2541 61.1091 68.2541 61.7934V62.3112ZM78.9841 62.3112C78.9841 62.9954 78.3966 63.5595 77.6838 63.5595H73.3494C72.6366 63.5595 72.0491 62.9954 72.0491 62.3112V61.7934C72.0491 61.0999 72.6366 60.5451 73.3494 60.5451H77.6838C78.3966 60.5451 78.9841 61.1091 78.9841 61.7934V62.3112Z" fill="#979797"/>
<defs>
<filter id="filter0_d_9742_184176" x="12.333" y="16.332" width="115.333" height="115.334" filterUnits="userSpaceOnUse" color-interpolation-filters="sRGB">
<feFlood flood-opacity="0" result="BackgroundImageFix"/>
<feColorMatrix in="SourceAlpha" type="matrix" values="0 0 0 0 0 0 0 0 0 0 0 0 0 0 0 0 0 0 127 0" result="hardAlpha"/>
<feOffset dy="4"/>
<feGaussianBlur stdDeviation="2"/>
<feComposite in2="hardAlpha" operator="out"/>
<feColorMatrix type="matrix" values="0 0 0 0 0 0 0 0 0 0 0 0 0 0 0 0 0 0 0.25 0"/>
<feBlend mode="normal" in2="BackgroundImageFix" result="effect1_dropShadow_9742_184176"/>
<feBlend mode="normal" in="SourceGraphic" in2="effect1_dropShadow_9742_184176" result="shape"/>
</filter>
<linearGradient id="paint0_linear_9742_184176" x1="32.077" y1="32.0761" x2="107.937" y2="107.936" gradientUnits="userSpaceOnUse">
<stop stop-color="#FCFCFC"/>
<stop offset="1" stop-color="#E6E6E6"/>
</linearGradient>
<linearGradient id="paint1_linear_9742_184176" x1="103.429" y1="103.417" x2="14.1192" y2="14.1077" gradientUnits="userSpaceOnUse">
<stop stop-color="#FCFCFC"/>
<stop offset="1" stop-color="#E6E6E6"/>
</linearGradient>
</defs>
</svg>
