<svg width="140" height="140" viewBox="0 0 140 140" fill="none" xmlns="http://www.w3.org/2000/svg">
<g filter="url(#filter0_d_9742_184239)">
<path d="M69.9997 123.666C40.4033 123.666 16.333 99.5953 16.333 69.9989C16.333 40.4024 40.4182 16.332 69.9997 16.332C99.5812 16.332 123.666 40.4024 123.666 69.9989C123.666 99.5953 99.5961 123.666 69.9997 123.666Z" fill="url(#paint0_linear_9742_184239)"/>
</g>
<path d="M105 105C124.33 85.67 124.33 54.33 105 35C85.67 15.67 54.33 15.67 35 35C15.67 54.33 15.67 85.67 35 105C54.33 124.33 85.67 124.33 105 105Z" fill="url(#paint1_linear_9742_184239)"/>
<g filter="url(#filter1_d_9742_184239)">
<path d="M69.9997 123.666C40.4033 123.666 16.333 99.5953 16.333 69.9989C16.333 40.4024 40.4182 16.332 69.9997 16.332C99.5812 16.332 123.666 40.4024 123.666 69.9989C123.666 99.5953 99.5961 123.666 69.9997 123.666Z" fill="url(#paint2_linear_9742_184239)"/>
</g>
<path d="M105 105C124.33 85.67 124.33 54.33 105 35C85.67 15.67 54.33 15.67 35 35C15.67 54.33 15.67 85.67 35 105C54.33 124.33 85.67 124.33 105 105Z" fill="url(#paint3_linear_9742_184239)"/>
<path fill-rule="evenodd" clip-rule="evenodd" d="M65.5518 66.4883H59.0707C57.6285 66.4883 56.447 67.7194 56.447 69.3281V92.0956C56.447 93.7043 57.6285 95.0011 59.0707 95.0011H65.5518C66.994 95.0011 68.1756 93.7043 68.1756 92.0956V69.3445C68.1756 67.7358 66.994 66.5047 65.4823 66.5047H65.5518V66.4883ZM80.9293 72.5454H74.5177C73.006 72.5454 71.8939 73.5959 71.8939 74.8271V92.703C71.8939 93.9998 73.006 94.9847 74.5177 94.9847H80.9293C82.441 94.9847 83.6052 93.9998 83.6052 92.703V74.8271C83.6052 73.5959 82.4236 72.5454 80.9293 72.5454ZM96.3763 62.5815H89.8951C88.453 62.5815 87.2714 63.6977 87.2714 65.0602V92.4732C87.2714 93.9013 88.453 95.0011 89.8951 95.0011H96.3763C97.8185 95.0011 99 93.8848 99 92.4732V65.0766C99 63.7141 97.8185 62.5979 96.3763 62.5979V62.5815ZM58.3583 49.9748V59.873C58.1672 59.7417 57.9587 59.6268 57.837 59.6268V49.1705C62.1636 51.6984 66.4206 49.9748 70.6081 48.2348C74.0138 46.8724 77.2283 45.5099 80.3733 46.4456V47.0693C79.713 46.938 79.0006 46.8231 78.2187 46.8231C75.4733 46.8231 72.7801 47.9393 70.1738 48.9899C67.6195 50.0405 65.0653 51.0254 62.5111 51.0254C61.3295 51.0254 60.287 50.8448 59.175 50.3523L58.393 49.9748H58.3583ZM83.3098 50.3523V48.3661L83.0491 48.1199C82.5974 47.8737 82.1282 47.6275 81.6069 47.4469V45.6577L81.2073 45.5263C77.4715 44.1639 73.7358 45.7069 70.139 47.2007C65.8125 48.9899 61.6944 50.6642 57.5764 47.6275L56.6555 46.8888V60.1193L56.8466 60.2998C57.2984 60.6117 57.837 60.9236 58.3583 61.1698V63.0247L58.6189 63.156C59.1402 63.4022 59.6615 63.5336 60.1306 63.7141V64.4528C65.4302 65.9302 70.6776 61.7936 75.9077 60.743V59.7581C75.0563 59.6268 74.3439 59.3806 73.8053 58.8881C73.2145 58.3957 72.9539 57.7063 72.9539 56.7214L73.0234 56.6557H74.9868C74.9868 57.2138 75.0563 57.7063 75.3865 57.8868C75.6471 58.1987 76.0467 58.3136 76.429 58.3136C76.8808 58.3136 77.2109 58.1823 77.4715 58.0017C77.6627 57.7555 77.7322 57.5093 77.7322 57.1317C77.7322 56.7542 77.6627 56.4587 77.4715 56.2617C77.2109 56.0155 76.8808 55.8349 76.3595 55.638C75.317 55.2604 74.535 54.8993 74.0659 54.4561C73.5446 54.0293 73.3361 53.4055 73.3361 52.6012C73.3361 51.9282 73.5273 51.3044 74.0659 50.8612C74.5177 50.3688 75.2475 50.0569 76.0989 49.9912V48.875C70.7993 49.9256 65.4302 54.0621 60.1306 52.5848V62.4173C59.9221 62.4173 59.731 62.286 59.5398 62.2368V51.7148C60.4608 52.0267 61.4338 52.2072 62.4937 52.2072C65.2391 52.2072 68.0018 51.091 70.6081 50.0405C73.0929 49.0556 75.7166 47.9393 78.2013 47.9393C79.574 47.9393 80.8772 48.3169 82.1282 48.9242V49.6629C80.4949 48.8586 78.8616 48.6124 77.1588 48.7929V50.024C78.0102 50.1554 78.6705 50.4508 79.1222 51.0089C79.574 51.5671 79.7825 52.2401 79.7825 53.0444L79.713 53.1101H77.7495C77.7495 52.6176 77.68 52.1908 77.4889 51.9282C77.2283 51.6163 76.8981 51.5014 76.568 51.5014C76.1162 51.5014 75.8556 51.5671 75.6471 51.8133C75.456 51.9938 75.3865 52.3057 75.3865 52.6176C75.3865 52.9952 75.456 53.2906 75.6471 53.4876C75.8382 53.7338 76.2379 53.8651 76.7591 54.1114C77.8017 54.5382 78.5315 54.9157 79.0527 55.3425C79.574 55.7693 79.7825 56.3274 79.7825 57.1317C79.7825 57.8704 79.574 58.4942 79.0527 58.921C78.5315 59.3477 77.8712 59.594 77.0198 59.7253V60.5953C79.3134 60.2834 81.6591 60.7758 83.9005 62.6307L83.3098 50.3195V50.3523ZM50.1049 62.5979H43.6932C42.1815 62.5979 41 63.7141 41 65.0766V92.4732C41 93.9013 42.1815 95.0011 43.6932 95.0011H50.1049C51.6165 95.0011 52.7807 93.8848 52.7807 92.4732V65.0766C52.7807 63.7141 51.5992 62.5979 50.1049 62.5979Z" fill="#979797"/>
<defs>
<filter id="filter0_d_9742_184239" x="12.333" y="16.332" width="115.333" height="115.334" filterUnits="userSpaceOnUse" color-interpolation-filters="sRGB">
<feFlood flood-opacity="0" result="BackgroundImageFix"/>
<feColorMatrix in="SourceAlpha" type="matrix" values="0 0 0 0 0 0 0 0 0 0 0 0 0 0 0 0 0 0 127 0" result="hardAlpha"/>
<feOffset dy="4"/>
<feGaussianBlur stdDeviation="2"/>
<feComposite in2="hardAlpha" operator="out"/>
<feColorMatrix type="matrix" values="0 0 0 0 0 0 0 0 0 0 0 0 0 0 0 0 0 0 0.1 0"/>
<feBlend mode="normal" in2="BackgroundImageFix" result="effect1_dropShadow_9742_184239"/>
<feBlend mode="normal" in="SourceGraphic" in2="effect1_dropShadow_9742_184239" result="shape"/>
</filter>
<filter id="filter1_d_9742_184239" x="12.333" y="16.332" width="115.333" height="115.334" filterUnits="userSpaceOnUse" color-interpolation-filters="sRGB">
<feFlood flood-opacity="0" result="BackgroundImageFix"/>
<feColorMatrix in="SourceAlpha" type="matrix" values="0 0 0 0 0 0 0 0 0 0 0 0 0 0 0 0 0 0 127 0" result="hardAlpha"/>
<feOffset dy="4"/>
<feGaussianBlur stdDeviation="2"/>
<feComposite in2="hardAlpha" operator="out"/>
<feColorMatrix type="matrix" values="0 0 0 0 0 0 0 0 0 0 0 0 0 0 0 0 0 0 0.05 0"/>
<feBlend mode="normal" in2="BackgroundImageFix" result="effect1_dropShadow_9742_184239"/>
<feBlend mode="normal" in="SourceGraphic" in2="effect1_dropShadow_9742_184239" result="shape"/>
</filter>
<linearGradient id="paint0_linear_9742_184239" x1="32.077" y1="32.0761" x2="107.937" y2="107.936" gradientUnits="userSpaceOnUse">
<stop stop-color="#FCFCFC"/>
<stop offset="1" stop-color="#E6E6E6"/>
</linearGradient>
<linearGradient id="paint1_linear_9742_184239" x1="103.429" y1="103.417" x2="14.1192" y2="14.1077" gradientUnits="userSpaceOnUse">
<stop stop-color="#FCFCFC"/>
<stop offset="1" stop-color="#E6E6E6"/>
</linearGradient>
<linearGradient id="paint2_linear_9742_184239" x1="32.077" y1="32.0761" x2="107.937" y2="107.936" gradientUnits="userSpaceOnUse">
<stop stop-color="#FCFCFC"/>
<stop offset="1" stop-color="#E6E6E6"/>
</linearGradient>
<linearGradient id="paint3_linear_9742_184239" x1="103.429" y1="103.417" x2="14.1192" y2="14.1077" gradientUnits="userSpaceOnUse">
<stop stop-color="#FCFCFC"/>
<stop offset="1" stop-color="#E6E6E6"/>
</linearGradient>
</defs>
</svg>
