<svg width="95" height="87" viewBox="0 0 95 87" fill="none" xmlns="http://www.w3.org/2000/svg">
<path d="M40.8023 75.1783C60.2652 79.5658 79.3012 68.9075 83.2446 51.4149C87.1879 33.9223 74.5562 16.1252 55.1031 11.74C35.6499 7.35467 16.6041 18.0107 12.6608 35.5033C8.71746 52.996 21.3394 70.7908 40.8023 75.1783Z" fill="url(#paint0_linear_1_75)"/>
<path d="M14.6493 41.9745C13.8114 26.6779 28.996 12.6975 47.2801 13.3086C65.5643 13.9197 79.6718 28.9495 80.5097 44.2461C81.3477 59.5428 67.1725 72.5503 48.7765 73.7268C30.3017 71.7233 13.2677 57.0397 14.6493 41.9745Z" fill="url(#paint1_linear_1_75)"/>
<path d="M50.5475 45.5677C50.5004 44.4641 51.357 43.6019 52.4609 43.6418L62.5167 44.0056C63.6206 44.0456 64.5536 44.9726 64.6007 46.0761L64.9055 53.2167C64.9526 54.3202 64.096 55.1825 62.9921 55.1425L52.9363 54.7787C51.8324 54.7388 50.8994 53.8118 50.8523 52.7082L50.5475 45.5677Z" fill="#FCC360"/>
<rect width="14.0997" height="11.0475" rx="2" transform="matrix(0.999346 0.0361581 0.0426458 0.99909 34.4661 30.4965)" fill="#80C28D"/>
<rect width="14.0222" height="11.0509" rx="2" transform="matrix(0.999822 0.0188443 0.0204681 0.99979 34.7938 43.209)" fill="#81ADDD"/>
<path d="M50.4391 33.0291C50.4165 31.9247 51.2935 31.0463 52.3978 31.0672L62.2529 31.2529C63.3573 31.2737 64.2709 32.1858 64.2935 33.2902L64.4359 40.2483C64.4585 41.3527 63.5816 42.231 62.4772 42.2102L52.6222 42.0245C51.5178 42.0037 50.6042 41.0915 50.5816 39.9872L50.4391 33.0291Z" fill="#D8D8D8"/>
<defs>
<linearGradient id="paint0_linear_1_75" x1="77.9438" y1="26.6671" x2="22.1795" y2="66.2209" gradientUnits="userSpaceOnUse">
<stop stop-color="#FCFCFC"/>
<stop offset="1" stop-color="#E6E6E6"/>
</linearGradient>
<linearGradient id="paint1_linear_1_75" x1="24.1541" y1="57.109" x2="84.4331" y2="10.1103" gradientUnits="userSpaceOnUse">
<stop stop-color="#FCFCFC"/>
<stop offset="1" stop-color="#E6E6E6"/>
</linearGradient>
</defs>
</svg>
