<svg width="234" height="43" viewBox="0 0 234 43" fill="none" xmlns="http://www.w3.org/2000/svg">
<g filter="url(#filter0_d_9123_184801)">
<g filter="url(#filter1_d_9123_184801)">
<rect x="4" width="226" height="35" rx="11" fill="url(#paint0_linear_9123_184801)"/>
</g>
</g>
<g filter="url(#filter2_d_9123_184801)">
<rect x="4" width="163" height="35" rx="11" fill="url(#paint1_linear_9123_184801)"/>
</g>
<path d="M103.33 19.916C103.33 19.0762 103.389 18.2493 103.506 17.4355C103.63 16.6217 103.838 15.86 104.131 15.1504C104.424 14.4408 104.827 13.8158 105.342 13.2754C105.863 12.735 106.517 12.3118 107.305 12.0059C108.092 11.6934 109.04 11.5371 110.146 11.5371C110.433 11.5371 110.755 11.5501 111.113 11.5762C111.471 11.6022 111.768 11.6445 112.002 11.7031V13.6074C111.748 13.5358 111.468 13.4805 111.162 13.4414C110.863 13.4023 110.563 13.3828 110.264 13.3828C109.066 13.3828 108.132 13.6107 107.461 14.0664C106.79 14.5156 106.312 15.1341 106.025 15.9219C105.739 16.7031 105.573 17.5983 105.527 18.6074H105.645C105.84 18.2819 106.084 17.9922 106.377 17.7383C106.67 17.4844 107.028 17.2826 107.451 17.1328C107.874 16.9766 108.366 16.8984 108.926 16.8984C109.759 16.8984 110.485 17.0742 111.104 17.4258C111.722 17.7708 112.197 18.2721 112.529 18.9297C112.868 19.5872 113.037 20.3848 113.037 21.3223C113.037 22.3314 112.845 23.2005 112.461 23.9297C112.083 24.6589 111.543 25.2188 110.84 25.6094C110.143 26 109.313 26.1953 108.35 26.1953C107.64 26.1953 106.979 26.0651 106.367 25.8047C105.762 25.5443 105.231 25.1536 104.775 24.6328C104.32 24.112 103.965 23.4609 103.711 22.6797C103.457 21.8919 103.33 20.9707 103.33 19.916ZM108.311 24.3008C109.053 24.3008 109.648 24.0599 110.098 23.5781C110.553 23.0898 110.781 22.3444 110.781 21.3418C110.781 20.528 110.579 19.8835 110.176 19.4082C109.779 18.9329 109.18 18.6953 108.379 18.6953C107.832 18.6953 107.354 18.8125 106.943 19.0469C106.533 19.2812 106.214 19.5775 105.986 19.9355C105.765 20.2936 105.654 20.6582 105.654 21.0293C105.654 21.4069 105.71 21.7878 105.82 22.1719C105.931 22.556 106.097 22.9108 106.318 23.2363C106.54 23.5553 106.816 23.8125 107.148 24.0078C107.48 24.2031 107.868 24.3008 108.311 24.3008ZM119.57 11.5273C120.397 11.5273 121.143 11.6576 121.807 11.918C122.471 12.1719 122.998 12.5527 123.389 13.0605C123.779 13.5684 123.975 14.1966 123.975 14.9453C123.975 15.5247 123.854 16.0293 123.613 16.459C123.379 16.8887 123.06 17.2663 122.656 17.5918C122.253 17.9108 121.8 18.194 121.299 18.4414C121.859 18.7148 122.373 19.0306 122.842 19.3887C123.317 19.7402 123.698 20.1536 123.984 20.6289C124.277 21.1042 124.424 21.6608 124.424 22.2988C124.424 23.0996 124.219 23.793 123.809 24.3789C123.405 24.9583 122.842 25.4076 122.119 25.7266C121.396 26.0391 120.553 26.1953 119.59 26.1953C118.555 26.1953 117.673 26.0423 116.943 25.7363C116.214 25.4303 115.661 24.9941 115.283 24.4277C114.906 23.8548 114.717 23.1712 114.717 22.377C114.717 21.7194 114.847 21.1497 115.107 20.668C115.368 20.1862 115.716 19.7695 116.152 19.418C116.595 19.0664 117.08 18.7702 117.607 18.5293C117.158 18.2624 116.748 17.9629 116.377 17.6309C116.006 17.2923 115.71 16.9049 115.488 16.4688C115.273 16.026 115.166 15.515 115.166 14.9355C115.166 14.1934 115.365 13.5716 115.762 13.0703C116.159 12.5625 116.689 12.1784 117.354 11.918C118.024 11.6576 118.763 11.5273 119.57 11.5273ZM116.904 22.2891C116.904 22.9141 117.126 23.4284 117.568 23.832C118.011 24.2357 118.672 24.4375 119.551 24.4375C120.423 24.4375 121.087 24.2389 121.543 23.8418C121.999 23.4447 122.227 22.9206 122.227 22.2695C122.227 21.8529 122.109 21.485 121.875 21.166C121.647 20.847 121.338 20.5638 120.947 20.3164C120.563 20.0625 120.137 19.8281 119.668 19.6133L119.355 19.4863C118.848 19.7012 118.411 19.9453 118.047 20.2188C117.682 20.4857 117.399 20.7884 117.197 21.127C117.002 21.4655 116.904 21.8529 116.904 22.2891ZM119.551 13.2949C118.919 13.2949 118.398 13.4512 117.988 13.7637C117.585 14.0697 117.383 14.5124 117.383 15.0918C117.383 15.502 117.48 15.8535 117.676 16.1465C117.878 16.4395 118.148 16.6934 118.486 16.9082C118.825 17.1165 119.199 17.3118 119.609 17.4941C120.007 17.3184 120.365 17.1263 120.684 16.918C121.009 16.7031 121.266 16.4492 121.455 16.1562C121.65 15.8568 121.748 15.4987 121.748 15.082C121.748 14.5091 121.543 14.0697 121.133 13.7637C120.729 13.4512 120.202 13.2949 119.551 13.2949ZM129.248 11.5176C130.296 11.5176 131.09 11.9082 131.631 12.6895C132.171 13.4642 132.441 14.5612 132.441 15.9805C132.441 17.3932 132.181 18.4967 131.66 19.291C131.146 20.0853 130.342 20.4824 129.248 20.4824C128.226 20.4824 127.448 20.0853 126.914 19.291C126.38 18.4967 126.113 17.3932 126.113 15.9805C126.113 14.5612 126.364 13.4642 126.865 12.6895C127.373 11.9082 128.167 11.5176 129.248 11.5176ZM129.258 13.1191C128.835 13.1191 128.522 13.3568 128.32 13.832C128.125 14.3073 128.027 15.0267 128.027 15.9902C128.027 16.9473 128.125 17.6699 128.32 18.1582C128.522 18.64 128.835 18.8809 129.258 18.8809C129.688 18.8809 130.007 18.64 130.215 18.1582C130.43 17.6764 130.537 16.9538 130.537 15.9902C130.537 15.0332 130.433 14.3171 130.225 13.8418C130.016 13.36 129.694 13.1191 129.258 13.1191ZM138.838 11.7227L130.918 26H129.033L136.953 11.7227H138.838ZM138.574 17.2305C139.622 17.2305 140.417 17.6211 140.957 18.4023C141.504 19.1771 141.777 20.2741 141.777 21.6934C141.777 23.0996 141.517 24.1999 140.996 24.9941C140.482 25.7884 139.674 26.1855 138.574 26.1855C137.552 26.1855 136.774 25.7884 136.24 24.9941C135.706 24.1999 135.439 23.0996 135.439 21.6934C135.439 20.2741 135.69 19.1771 136.191 18.4023C136.699 17.6211 137.493 17.2305 138.574 17.2305ZM138.584 18.832C138.161 18.832 137.848 19.0697 137.646 19.5449C137.451 20.0202 137.354 20.7396 137.354 21.7031C137.354 22.6602 137.451 23.3828 137.646 23.8711C137.848 24.3529 138.161 24.5938 138.584 24.5938C139.02 24.5938 139.342 24.3561 139.551 23.8809C139.759 23.3991 139.863 22.6732 139.863 21.7031C139.863 20.7461 139.759 20.0299 139.551 19.5547C139.342 19.0729 139.02 18.832 138.584 18.832Z" fill="#064B8A"/>
<defs>
<filter id="filter0_d_9123_184801" x="0" y="0" width="234" height="43" filterUnits="userSpaceOnUse" color-interpolation-filters="sRGB">
<feFlood flood-opacity="0" result="BackgroundImageFix"/>
<feColorMatrix in="SourceAlpha" type="matrix" values="0 0 0 0 0 0 0 0 0 0 0 0 0 0 0 0 0 0 127 0" result="hardAlpha"/>
<feOffset dy="4"/>
<feGaussianBlur stdDeviation="2"/>
<feComposite in2="hardAlpha" operator="out"/>
<feColorMatrix type="matrix" values="0 0 0 0 0 0 0 0 0 0 0 0 0 0 0 0 0 0 0.25 0"/>
<feBlend mode="normal" in2="BackgroundImageFix" result="effect1_dropShadow_9123_184801"/>
<feBlend mode="normal" in="SourceGraphic" in2="effect1_dropShadow_9123_184801" result="shape"/>
</filter>
<filter id="filter1_d_9123_184801" x="0" y="0" width="234" height="43" filterUnits="userSpaceOnUse" color-interpolation-filters="sRGB">
<feFlood flood-opacity="0" result="BackgroundImageFix"/>
<feColorMatrix in="SourceAlpha" type="matrix" values="0 0 0 0 0 0 0 0 0 0 0 0 0 0 0 0 0 0 127 0" result="hardAlpha"/>
<feOffset dy="4"/>
<feGaussianBlur stdDeviation="2"/>
<feComposite in2="hardAlpha" operator="out"/>
<feColorMatrix type="matrix" values="0 0 0 0 0 0 0 0 0 0 0 0 0 0 0 0 0 0 0.25 0"/>
<feBlend mode="normal" in2="BackgroundImageFix" result="effect1_dropShadow_9123_184801"/>
<feBlend mode="normal" in="SourceGraphic" in2="effect1_dropShadow_9123_184801" result="shape"/>
</filter>
<filter id="filter2_d_9123_184801" x="0" y="0" width="171" height="43" filterUnits="userSpaceOnUse" color-interpolation-filters="sRGB">
<feFlood flood-opacity="0" result="BackgroundImageFix"/>
<feColorMatrix in="SourceAlpha" type="matrix" values="0 0 0 0 0 0 0 0 0 0 0 0 0 0 0 0 0 0 127 0" result="hardAlpha"/>
<feOffset dy="4"/>
<feGaussianBlur stdDeviation="2"/>
<feComposite in2="hardAlpha" operator="out"/>
<feColorMatrix type="matrix" values="0 0 0 0 0 0 0 0 0 0 0 0 0 0 0 0 0 0 0.25 0"/>
<feBlend mode="normal" in2="BackgroundImageFix" result="effect1_dropShadow_9123_184801"/>
<feBlend mode="normal" in="SourceGraphic" in2="effect1_dropShadow_9123_184801" result="shape"/>
</filter>
<linearGradient id="paint0_linear_9123_184801" x1="117" y1="0" x2="117" y2="35" gradientUnits="userSpaceOnUse">
<stop stop-color="#B0CDED"/>
<stop offset="1" stop-color="#81ADDD"/>
</linearGradient>
<linearGradient id="paint1_linear_9123_184801" x1="85.5" y1="0" x2="85.5" y2="35" gradientUnits="userSpaceOnUse">
<stop stop-color="#DDE76F"/>
<stop offset="1" stop-color="#DDE76F"/>
</linearGradient>
</defs>
</svg>
