<svg width="18" height="18" viewBox="0 0 18 18" fill="none" xmlns="http://www.w3.org/2000/svg">
<g clip-path="url(#clip0_9123_183978)">
<path d="M8.99876 0C4.02903 0 0 4.02903 0 9.00124C0 13.9735 4.02903 18 8.99876 18C13.9685 18 17.9975 13.971 17.9975 9.00124C17.9975 4.03152 13.971 0 8.99876 0ZM7.88884 1.08254H10.0689V7.68478H7.88884V1.08254ZM8.99876 16.1759C5.04687 16.1759 1.82912 12.9606 1.82912 9.00622C1.82912 5.85815 3.86727 3.18042 6.69432 2.21983V4.17088C4.89009 5.03443 3.64081 6.87847 3.64081 9.00622C3.64081 11.9602 6.04479 14.3642 8.99876 14.3642C11.9527 14.3642 14.3567 11.9602 14.3567 9.00622C14.3567 6.87598 13.1074 5.03194 11.3032 4.17088V2.21983C14.1302 3.18042 16.1684 5.86064 16.1684 9.00622C16.1684 12.9581 12.9531 16.1759 8.99876 16.1759Z" fill="#808080"/>
</g>
<defs>
<clipPath id="clip0_9123_183978">
<rect width="18" height="18" fill="white"/>
</clipPath>
</defs>
</svg>
