<svg width="140" height="140" viewBox="0 0 140 140" fill="none" xmlns="http://www.w3.org/2000/svg">
<g filter="url(#filter0_d_9742_184215)">
<path d="M69.9997 123.666C40.4033 123.666 16.333 99.5953 16.333 69.9989C16.333 40.4024 40.4182 16.332 69.9997 16.332C99.5812 16.332 123.666 40.4024 123.666 69.9989C123.666 99.5953 99.5961 123.666 69.9997 123.666Z" fill="url(#paint0_linear_9742_184215)"/>
</g>
<path d="M105 105C124.33 85.67 124.33 54.33 105 35C85.67 15.67 54.33 15.67 35 35C15.67 54.33 15.67 85.67 35 105C54.33 124.33 85.67 124.33 105 105Z" fill="url(#paint1_linear_9742_184215)"/>
<g filter="url(#filter1_d_9742_184215)">
<path d="M69.9997 123.666C40.4033 123.666 16.333 99.5953 16.333 69.9989C16.333 40.4024 40.4182 16.332 69.9997 16.332C99.5812 16.332 123.666 40.4024 123.666 69.9989C123.666 99.5953 99.5961 123.666 69.9997 123.666Z" fill="url(#paint2_linear_9742_184215)"/>
</g>
<path d="M105 105C124.33 85.67 124.33 54.33 105 35C85.67 15.67 54.33 15.67 35 35C15.67 54.33 15.67 85.67 35 105C54.33 124.33 85.67 124.33 105 105Z" fill="url(#paint3_linear_9742_184215)"/>
<path fill-rule="evenodd" clip-rule="evenodd" d="M68.934 76.4439C68.2127 76.9073 67.5394 77.4311 66.6417 78.1966C69.4149 79.7075 72.5087 80.6947 75.5223 80.9364C78.6001 81.158 81.6297 80.6343 84.467 78.9621C85.4288 78.4383 86.8234 77.5116 88.202 76.4641C91.3438 74.3286 94.9666 71.7499 97.1467 71.6089C97.3871 71.6089 97.9963 71.6089 98.5413 71.8305C98.9581 71.9111 99.3909 72.1327 99.6313 72.596L100 73.2004L99.5832 73.8048C99.0382 74.4898 98.2527 75.3963 97.4673 76.2424C96.7459 76.9274 95.8963 77.693 95.4796 78.1362C94.0208 79.5061 92.5781 80.7954 91.0072 82.0042C89.5645 83.1525 88.0417 84.2001 86.5349 85.2678C85.6853 85.7916 84.7876 86.3355 83.8739 86.8593C82.9762 87.3227 82.0625 87.7659 81.1007 88.1487C79.2252 88.9746 78.0871 89.0552 76.0834 89.1358H76.0192C73.4224 89.3574 70.9377 89.5186 68.405 89.6596C65.8723 89.7402 63.3396 89.8006 60.7267 89.8006C59.5725 89.8006 57.9535 90.6266 56.2543 91.8555C54.0262 93.447 51.6698 95.5825 50.0989 97.3956L49.5538 98L49.0729 97.3956L40.4809 86.9198L40 86.396L40.3046 85.711C41.7473 83.1323 44.1037 79.2643 46.412 76.2223C48.2875 73.7846 50.0989 71.7499 51.3652 71.1455C53.417 70.1584 57.4085 69.9368 60.4221 69.695C61.2717 69.695 62.0572 69.6145 62.7144 69.5339C63.4357 69.5339 64.109 69.4533 64.7021 69.3928C65.3593 69.3123 66.0326 69.2317 66.6898 69.0907C67.844 68.8691 68.9821 68.7079 70.1363 68.4057C71.2263 68.1841 72.3644 67.9423 73.5827 67.6402L74.2399 67.479C75.4422 67.1768 76.6604 66.8746 77.7986 66.7134C78.1672 66.7134 78.5199 66.6329 78.8245 66.5523H79.7863L80.3954 66.4717L80.5717 67.2372C80.6359 67.62 80.6359 68.0028 80.5717 68.3856C80.5076 68.8489 80.3954 69.2921 80.2672 69.5339C79.9626 70.3598 79.4817 71.0448 78.9367 71.7298C78.2795 72.4147 77.478 72.9385 76.7566 73.3213C75.9711 73.7846 74.833 74.1473 73.8071 74.4696C73.5025 74.6308 73.198 74.6912 72.8453 74.8524C70.9698 75.5373 69.9439 75.9201 68.918 76.4439H68.934ZM67.7318 49.7305H62.4098C62.4739 50.4154 62.7785 50.9392 63.3235 51.2414C63.9327 51.5436 64.4777 51.7048 65.0708 51.7048C65.8563 51.7048 66.4654 51.5436 66.8181 51.1004C67.2348 50.7982 67.5394 50.3348 67.7157 49.7305H67.7318ZM69.5431 40.0201C62.4098 40.0201 56.623 44.1903 56.623 49.2873C56.623 54.3842 62.4259 58.6954 69.5431 58.6954C76.6604 58.6954 82.4152 54.5252 82.4152 49.2873C82.4152 44.0493 76.6604 40 69.5271 40L69.5431 40.0201ZM62.474 48.9045H67.9081C68.389 47.6957 68.8699 46.8496 69.3027 46.4064C70.024 45.6408 71.05 45.2581 72.4446 45.2581C74.4323 45.2581 75.8269 45.7819 76.6765 46.7086C77.0932 47.2324 77.4619 47.9173 77.5902 48.9045H79.7702V49.7305H77.5902C77.4619 51.322 76.6765 52.3091 75.2979 52.9135C74.5124 53.2157 73.5506 53.3769 72.2201 53.3769V51.9264C73.2461 51.9264 73.9674 51.7652 74.4483 51.6242C75.2979 51.2414 75.7788 50.637 75.891 49.7305H69.7836C69.479 50.8586 68.934 51.7853 68.2127 52.3091C67.4913 52.8329 66.5135 53.1351 65.2471 53.1351C64.093 53.1351 63.0671 52.8329 62.1694 52.2286C61.2557 51.6242 60.7748 50.778 60.7748 49.7305H59.268V48.9045H60.7107C60.8389 47.8367 61.2557 47.0914 62.0411 46.4668C62.8266 45.8625 63.8525 45.5603 65.1189 45.5603V47.0108C64.5098 47.0914 64.0289 47.1719 63.6762 47.313C62.8907 47.6151 62.474 48.2195 62.474 48.9045ZM69.5431 59.9041C62.9548 59.9041 57.6489 56.4189 56.7352 51.8659C56.6711 52.2487 56.607 52.6919 56.607 53.0747C56.607 58.232 62.4098 62.4022 69.5271 62.4022C76.6444 62.4022 82.3991 58.232 82.3991 53.0747C82.3991 52.6919 82.335 52.2487 82.2869 51.8659C81.4373 56.4189 76.0673 59.9041 69.5431 59.9041ZM69.5431 63.6916C62.9548 63.6916 57.6489 60.1257 56.7352 55.5728C56.6711 55.9555 56.607 56.3987 56.607 56.7815C56.607 61.9389 62.4098 66.1091 69.5271 66.1091C76.6444 66.1091 82.3991 61.9389 82.3991 56.7815C82.3991 56.3987 82.335 55.9555 82.2869 55.5728C81.4373 60.1257 76.0673 63.6916 69.5431 63.6916ZM72.9896 46.769C72.0278 46.769 71.3545 46.9906 70.8736 47.5346C70.5691 47.7562 70.3286 48.2195 70.024 48.9045H75.9391C75.875 47.9979 75.3941 47.3935 74.4964 47.0914C74.0636 46.8697 73.5827 46.7892 72.9896 46.7892V46.769Z" fill="url(#paint4_linear_9742_184215)"/>
<defs>
<filter id="filter0_d_9742_184215" x="12.333" y="16.332" width="115.333" height="115.334" filterUnits="userSpaceOnUse" color-interpolation-filters="sRGB">
<feFlood flood-opacity="0" result="BackgroundImageFix"/>
<feColorMatrix in="SourceAlpha" type="matrix" values="0 0 0 0 0 0 0 0 0 0 0 0 0 0 0 0 0 0 127 0" result="hardAlpha"/>
<feOffset dy="4"/>
<feGaussianBlur stdDeviation="2"/>
<feComposite in2="hardAlpha" operator="out"/>
<feColorMatrix type="matrix" values="0 0 0 0 0 0 0 0 0 0 0 0 0 0 0 0 0 0 0.1 0"/>
<feBlend mode="normal" in2="BackgroundImageFix" result="effect1_dropShadow_9742_184215"/>
<feBlend mode="normal" in="SourceGraphic" in2="effect1_dropShadow_9742_184215" result="shape"/>
</filter>
<filter id="filter1_d_9742_184215" x="12.333" y="16.332" width="115.333" height="115.334" filterUnits="userSpaceOnUse" color-interpolation-filters="sRGB">
<feFlood flood-opacity="0" result="BackgroundImageFix"/>
<feColorMatrix in="SourceAlpha" type="matrix" values="0 0 0 0 0 0 0 0 0 0 0 0 0 0 0 0 0 0 127 0" result="hardAlpha"/>
<feOffset dy="4"/>
<feGaussianBlur stdDeviation="2"/>
<feComposite in2="hardAlpha" operator="out"/>
<feColorMatrix type="matrix" values="0 0 0 0 0 0 0 0 0 0 0 0 0 0 0 0 0 0 0.05 0"/>
<feBlend mode="normal" in2="BackgroundImageFix" result="effect1_dropShadow_9742_184215"/>
<feBlend mode="normal" in="SourceGraphic" in2="effect1_dropShadow_9742_184215" result="shape"/>
</filter>
<linearGradient id="paint0_linear_9742_184215" x1="32.077" y1="32.0761" x2="107.937" y2="107.936" gradientUnits="userSpaceOnUse">
<stop stop-color="#FCFCFC"/>
<stop offset="1" stop-color="#E6E6E6"/>
</linearGradient>
<linearGradient id="paint1_linear_9742_184215" x1="103.429" y1="103.417" x2="14.1192" y2="14.1077" gradientUnits="userSpaceOnUse">
<stop stop-color="#FCFCFC"/>
<stop offset="1" stop-color="#E6E6E6"/>
</linearGradient>
<linearGradient id="paint2_linear_9742_184215" x1="32.077" y1="32.0761" x2="107.937" y2="107.936" gradientUnits="userSpaceOnUse">
<stop stop-color="#FCFCFC"/>
<stop offset="1" stop-color="#E6E6E6"/>
</linearGradient>
<linearGradient id="paint3_linear_9742_184215" x1="103.429" y1="103.417" x2="14.1192" y2="14.1077" gradientUnits="userSpaceOnUse">
<stop stop-color="#FCFCFC"/>
<stop offset="1" stop-color="#E6E6E6"/>
</linearGradient>
<linearGradient id="paint4_linear_9742_184215" x1="70" y1="40" x2="70" y2="98" gradientUnits="userSpaceOnUse">
<stop stop-color="#D09C41"/>
<stop offset="1" stop-color="#FFDEA6"/>
</linearGradient>
</defs>
</svg>
