<svg width="18" height="18" viewBox="0 0 18 18" fill="none" xmlns="http://www.w3.org/2000/svg">
<g clip-path="url(#clip0_9123_183986)">
<path d="M3.64453 9.00016C3.64453 11.9522 6.04689 14.3568 9.00188 14.3568C11.9569 14.3568 14.3592 11.9547 14.3592 9.00016C14.3592 6.04557 11.9569 3.64355 9.00188 3.64355C6.04689 3.64355 3.64453 6.04557 3.64453 9.00016ZM12.7341 8.67467C12.9133 10.7361 11.3891 12.5527 9.32741 12.7319C7.26573 12.911 5.44882 11.387 5.26965 9.32564C5.09049 7.26424 6.61467 5.44759 8.67636 5.26845C10.738 5.08931 12.5549 6.61328 12.7341 8.67467Z" fill="#808080"/>
<path d="M16.3465 11.9595L17.2322 11.9242C17.4392 11.9166 17.6511 11.7475 17.7066 11.5482L17.9968 10.1454C18.0271 9.94099 17.8984 9.70129 17.7142 9.61046L16.9168 9.22442C16.7301 9.13359 16.5761 8.89137 16.5736 8.68447C16.5736 8.68447 16.5736 8.58102 16.5509 8.3388L16.5433 8.25554C16.5307 8.16471 16.6644 8.0007 16.8386 7.88969L17.5906 7.41534C17.7647 7.30432 17.8656 7.05201 17.8126 6.85268L17.3685 5.49271C17.2928 5.30096 17.0606 5.15714 16.8562 5.17228L15.968 5.23535C15.761 5.25049 15.5188 5.13695 15.4254 4.98556C15.3321 4.83165 15.1403 4.29927 15.2362 4.11761L15.65 3.33291C15.7459 3.15125 15.7055 2.88127 15.5592 2.73493L14.4917 1.78119C14.3302 1.65251 14.0577 1.64242 13.8861 1.75848L13.1518 2.25806C12.9802 2.37413 12.7127 2.39936 12.5562 2.31357C12.3998 2.22778 11.9657 1.85941 11.9582 1.65503L11.9228 0.769415C11.9153 0.562519 11.7462 0.350576 11.5468 0.295067L10.1488 0.00490744C9.94442 -0.0253701 9.70468 0.103309 9.61384 0.287498L9.22775 1.08481C9.1369 1.27152 8.89465 1.42543 8.69024 1.42795C8.69024 1.42795 8.58678 1.42795 8.34453 1.45066L8.26125 1.45823C8.17041 1.46832 8.00638 1.33712 7.89535 1.1605L7.42093 0.408608C7.3099 0.234512 7.05755 0.133587 6.8582 0.186573L5.49804 0.630643C5.30626 0.706337 5.16242 0.935942 5.17756 1.14284L5.24317 2.03098C5.25831 2.23788 5.14475 2.4801 4.99334 2.57345C4.84194 2.66681 4.30948 2.85857 4.12527 2.76269L3.34046 2.34889C3.15877 2.25302 2.88876 2.29339 2.7424 2.4372L1.78852 3.50449C1.65982 3.66597 1.64973 3.93847 1.76581 4.11004L2.26546 4.84427C2.38154 5.01584 2.40677 5.28329 2.32098 5.4372C2.23518 5.59364 1.86675 6.02509 1.66235 6.03519L0.776605 6.07051C0.56968 6.07808 0.357707 6.24713 0.302191 6.44646L0.00441978 7.85184C-0.025862 8.05621 0.102836 8.29591 0.28705 8.38674L1.08447 8.77278C1.27121 8.86361 1.42514 9.10583 1.42766 9.31021C1.42766 9.31021 1.42766 9.41366 1.45038 9.65588L1.45795 9.73914C1.46804 9.82997 1.33682 9.99397 1.16017 10.105L0.408177 10.5793C0.234057 10.6904 0.133117 10.9427 0.18611 11.142L0.630243 12.502C0.705948 12.6937 0.938108 12.8375 1.14251 12.8224L2.03078 12.7568C2.2377 12.7417 2.47996 12.8552 2.57332 13.0066C2.66669 13.158 2.85848 13.6904 2.76259 13.8745L2.34873 14.6592C2.25284 14.8409 2.29322 15.1109 2.43958 15.2572L3.50701 16.211C3.66852 16.3396 3.94105 16.3497 4.11265 16.2337L4.84698 15.7341C5.01858 15.618 5.28607 15.5928 5.44 15.6786C5.59646 15.7644 6.02797 16.1327 6.03807 16.3371L6.07339 17.2227C6.08096 17.4296 6.25004 17.6416 6.44939 17.6971L7.84993 17.9872C8.05433 18.0175 8.29406 17.8888 8.3849 17.7047L8.77352 16.9048C8.86437 16.7206 9.10662 16.5642 9.31355 16.5617C9.31355 16.5617 9.41701 16.5617 9.65926 16.539L9.74254 16.5314C9.83338 16.5188 9.99741 16.6525 10.1084 16.8266L10.5829 17.5785C10.6939 17.7526 10.9462 17.8535 11.1456 17.8005L12.5058 17.3565C12.6975 17.2808 12.8414 17.0512 12.8262 16.8443L12.7631 15.9561C12.748 15.7492 12.8616 15.507 13.013 15.4137C13.1644 15.3203 13.6968 15.1285 13.881 15.2244L14.6659 15.6382C14.8475 15.7341 15.1176 15.6937 15.2639 15.5474L16.2178 14.4801C16.3465 14.3186 16.3566 14.0461 16.2405 13.8745L15.7409 13.1403C15.6248 12.9687 15.5995 12.7013 15.6853 12.5474C15.7711 12.3909 16.1396 11.957 16.344 11.9494L16.3465 11.9595ZM9.00063 15.1033C5.63431 15.1033 2.89633 12.3657 2.89633 8.99986C2.89633 5.63401 5.63431 2.89641 9.00063 2.89641C12.367 2.89641 15.1049 5.63401 15.1049 8.99986C15.1049 12.3657 12.367 15.1033 9.00063 15.1033Z" fill="#808080"/>
</g>
<defs>
<clipPath id="clip0_9123_183986">
<rect width="18" height="18" fill="white"/>
</clipPath>
</defs>
</svg>
